ISO-10303-21;
HEADER;
FILE_DESCRIPTION (( 'STEP AP203' ),
    '1' );
FILE_NAME ('98687A134_General Purpose Steel Washer.STEP',
    '2024-05-13T14:14:36',
    ( 'Administrator' ),
    ( 'Managed by Terraform' ),
    'SwSTEP 2.0',
    'SolidWorks 2017',
    '' );
FILE_SCHEMA (( 'CONFIG_CONTROL_DESIGN' ));
ENDSEC;

DATA;
#1 = TOROIDAL_SURFACE ( 'NONE', #134, 2.239999999999999800, 0.08999999999999999700 ) ;
#2 = ORIENTED_EDGE ( 'NONE', *, *, #117, .F. ) ;
#3 = ORIENTED_EDGE ( 'NONE', *, *, #172, .T. ) ;
#4 = CARTESIAN_POINT ( 'NONE',  ( 0.0000000000000000000, 0.0000000000000000000, -0.4500000000000000100 ) ) ;
#5 = AXIS2_PLACEMENT_3D ( 'NONE', #367, #20, #182 ) ;
#6 = ORGANIZATION ( 'UNSPECIFIED', 'UNSPECIFIED', '' ) ;
#7 = PERSON_AND_ORGANIZATION_ROLE ( 'design_supplier' ) ;
#8 = CARTESIAN_POINT ( 'NONE',  ( 0.0000000000000000000, 0.0000000000000000000, -0.4500000000000000100 ) ) ;
#9 = CIRCLE ( 'NONE', #72, 2.149999999999999900 ) ;
#10 = DIRECTION ( 'NONE',  ( 0.0000000000000000000, 0.0000000000000000000, 1.000000000000000000 ) ) ;
#11 = ORIENTED_EDGE ( 'NONE', *, *, #387, .T. ) ;
#12 = EDGE_CURVE ( 'NONE', #306, #336, #55, .T. ) ;
#13 = ORIENTED_EDGE ( 'NONE', *, *, #388, .T. ) ;
#14 = ORIENTED_EDGE ( 'NONE', *, *, #172, .F. ) ;
#15 = COORDINATED_UNIVERSAL_TIME_OFFSET ( 6, 0, .BEHIND. ) ;
#16 = CARTESIAN_POINT ( 'NONE',  ( 0.0000000000000000000, 0.0000000000000000000, 0.2699999999999999600 ) ) ;
#17 = VECTOR ( 'NONE', #329, 1000.000000000000000 ) ;
#18 = AXIS2_PLACEMENT_3D ( 'NONE', #192, #194, #213 ) ;
#19 = DIRECTION ( 'NONE',  ( 1.000000000000000000, 0.0000000000000000000, 0.0000000000000000000 ) ) ;
#20 = DIRECTION ( 'NONE',  ( 0.0000000000000000000, -1.000000000000000000, 0.0000000000000000000 ) ) ;
#21 = EDGE_CURVE ( 'NONE', #177, #384, #38, .T. ) ;
#22 = CARTESIAN_POINT ( 'NONE',  ( -2.239999999999999800, 2.743208830090071000E-016, 0.4500000000000000100 ) ) ;
#23 = DIRECTION ( 'NONE',  ( 0.0000000000000000000, 0.0000000000000000000, 1.000000000000000000 ) ) ;
#24 = UNCERTAINTY_MEASURE_WITH_UNIT (LENGTH_MEASURE( 1.000000000000000100E-005 ), #47, 'distance_accuracy_value', 'NONE');
#25 = CARTESIAN_POINT ( 'NONE',  ( 0.0000000000000000000, 0.0000000000000000000, 0.4500000000000000100 ) ) ;
#26 = ADVANCED_FACE ( 'NONE', ( #372 ), #305, .T. ) ;
#27 = VERTEX_POINT ( 'NONE', #283 ) ;
#28 = ADVANCED_FACE ( 'NONE', ( #397 ), #154, .T. ) ;
#29 = LOCAL_TIME ( 9, 14, 36.00000000000000000, #73 ) ;
#30 = CC_DESIGN_DATE_AND_TIME_ASSIGNMENT ( #311, #252, ( #304 ) ) ;
#31 = EDGE_LOOP ( 'NONE', ( #226, #324, #293, #290 ) ) ;
#32 = COORDINATED_UNIVERSAL_TIME_OFFSET ( 6, 0, .BEHIND. ) ;
#33 = ORIENTED_EDGE ( 'NONE', *, *, #387, .F. ) ;
#34 = AXIS2_PLACEMENT_3D ( 'NONE', #56, #237, #60 ) ;
#35 = DATE_AND_TIME ( #224, #285 ) ;
#36 = CARTESIAN_POINT ( 'NONE',  ( -2.149999999999999900, 2.632990618166809200E-016, -0.4500000000000000100 ) ) ;
#37 = CARTESIAN_POINT ( 'NONE',  ( -4.500000000000000000, 5.510910596163088600E-016, -0.2700000000000000200 ) ) ;
#38 = LINE ( 'NONE', #257, #230 ) ;
#39 = PERSON_AND_ORGANIZATION_ROLE ( 'classification_officer' ) ;
#40 = ORIENTED_EDGE ( 'NONE', *, *, #112, .F. ) ;
#41 = CARTESIAN_POINT ( 'NONE',  ( 0.0000000000000000000, 0.0000000000000000000, 0.3599999999999999900 ) ) ;
#42 = DIRECTION ( 'NONE',  ( 0.0000000000000000000, 0.0000000000000000000, 1.000000000000000000 ) ) ;
#43 = AXIS2_PLACEMENT_3D ( 'NONE', #278, #255, #373 ) ;
#44 = DATE_AND_TIME ( #139, #339 ) ;
#45 = APPROVAL_STATUS ( 'not_yet_approved' ) ;
#46 = FACE_BOUND ( 'NONE', #176, .T. ) ;
#47 =( LENGTH_UNIT ( ) NAMED_UNIT ( * ) SI_UNIT ( .MILLI., .METRE. ) );
#48 = EDGE_CURVE ( 'NONE', #158, #152, #242, .T. ) ;
#49 = PERSON_AND_ORGANIZATION ( #331, #6 ) ;
#50 = FACE_OUTER_BOUND ( 'NONE', #57, .T. ) ;
#51 = AXIS2_PLACEMENT_3D ( 'NONE', #144, #171, #389 ) ;
#52 = CARTESIAN_POINT ( 'NONE',  ( 4.320000000000000300, 0.0000000000000000000, -0.2700000000000000200 ) ) ;
#53 = EDGE_CURVE ( 'NONE', #306, #27, #74, .T. ) ;
#54 = DIRECTION ( 'NONE',  ( 1.000000000000000000, 0.0000000000000000000, 0.0000000000000000000 ) ) ;
#55 = CIRCLE ( 'NONE', #239, 0.08999999999999980200 ) ;
#56 = CARTESIAN_POINT ( 'NONE',  ( 0.0000000000000000000, 0.0000000000000000000, 0.3599999999999999900 ) ) ;
#57 = EDGE_LOOP ( 'NONE', ( #348, #225, #206, #240 ) ) ;
#58 = CARTESIAN_POINT ( 'NONE',  ( 4.500000000000000000, 0.0000000000000000000, -0.2700000000000000200 ) ) ;
#59 = APPROVAL ( #45, 'UNSPECIFIED' ) ;
#60 = DIRECTION ( 'NONE',  ( 1.000000000000000000, 0.0000000000000000000, 0.0000000000000000000 ) ) ;
#61 = FACE_OUTER_BOUND ( 'NONE', #259, .T. ) ;
#62 = LOCAL_TIME ( 9, 14, 36.00000000000000000, #15 ) ;
#63 = CARTESIAN_POINT ( 'NONE',  ( 2.149999999999999900, 0.0000000000000000000, 0.3599999999999999900 ) ) ;
#64 = EDGE_LOOP ( 'NONE', ( #116, #330, #80, #350 ) ) ;
#65 = CC_DESIGN_PERSON_AND_ORGANIZATION_ASSIGNMENT ( #83, #251, ( #236 ) ) ;
#66 = CIRCLE ( 'NONE', #122, 2.149999999999999900 ) ;
#67 = MANIFOLD_SOLID_BREP ( 'Fillet2', #238 ) ;
#68 = EDGE_LOOP ( 'NONE', ( #94, #183, #69, #318 ) ) ;
#69 = ORIENTED_EDGE ( 'NONE', *, *, #298, .T. ) ;
#70 = CIRCLE ( 'NONE', #265, 4.320000000000000300 ) ;
#71 = DIRECTION ( 'NONE',  ( 0.0000000000000000000, 0.0000000000000000000, 1.000000000000000000 ) ) ;
#72 = AXIS2_PLACEMENT_3D ( 'NONE', #335, #184, #204 ) ;
#73 = COORDINATED_UNIVERSAL_TIME_OFFSET ( 6, 0, .BEHIND. ) ;
#74 = CIRCLE ( 'NONE', #51, 2.239999999999999800 ) ;
#75 = APPROVAL_STATUS ( 'not_yet_approved' ) ;
#76 = CARTESIAN_POINT ( 'NONE',  ( 0.0000000000000000000, 0.0000000000000000000, 0.0000000000000000000 ) ) ;
#77 = CARTESIAN_POINT ( 'NONE',  ( 0.0000000000000000000, 0.0000000000000000000, 0.2699999999999999600 ) ) ;
#78 = CYLINDRICAL_SURFACE ( 'NONE', #284, 2.149999999999999900 ) ;
#79 = CC_DESIGN_PERSON_AND_ORGANIZATION_ASSIGNMENT ( #199, #7, ( #215 ) ) ;
#80 = ORIENTED_EDGE ( 'NONE', *, *, #48, .F. ) ;
#81 = ORIENTED_EDGE ( 'NONE', *, *, #244, .T. ) ;
#82 = DIRECTION ( 'NONE',  ( 0.0000000000000000000, 0.0000000000000000000, 1.000000000000000000 ) ) ;
#83 = PERSON_AND_ORGANIZATION ( #331, #6 ) ;
#84 = DIRECTION ( 'NONE',  ( 1.224646799147353200E-016, 1.000000000000000000, -0.0000000000000000000 ) ) ;
#85 = VERTEX_POINT ( 'NONE', #322 ) ;
#86 = DIRECTION ( 'NONE',  ( -1.000000000000000000, 1.224646799147354700E-016, 0.0000000000000000000 ) ) ;
#87 = TOROIDAL_SURFACE ( 'NONE', #179, 4.320000000000000300, 0.1799999999999999900 ) ;
#88 = CC_DESIGN_PERSON_AND_ORGANIZATION_ASSIGNMENT ( #107, #39, ( #354 ) ) ;
#89 = CARTESIAN_POINT ( 'NONE',  ( 0.0000000000000000000, 0.0000000000000000000, 0.4500000000000000100 ) ) ;
#90 = DIRECTION ( 'NONE',  ( 0.0000000000000000000, 0.0000000000000000000, 1.000000000000000000 ) ) ;
#91 = DIRECTION ( 'NONE',  ( 0.0000000000000000000, 0.0000000000000000000, 1.000000000000000000 ) ) ;
#92 = EDGE_CURVE ( 'NONE', #208, #393, #164, .T. ) ;
#93 = ADVANCED_FACE ( 'NONE', ( #301, #203 ), #246, .F. ) ;
#94 = ORIENTED_EDGE ( 'NONE', *, *, #357, .T. ) ;
#95 = ORIENTED_EDGE ( 'NONE', *, *, #48, .T. ) ;
#96 = SHAPE_DEFINITION_REPRESENTATION ( #358, #151 ) ;
#97 = EDGE_LOOP ( 'NONE', ( #253, #2, #245, #390 ) ) ;
#98 = ORIENTED_EDGE ( 'NONE', *, *, #388, .F. ) ;
#99 = DIRECTION ( 'NONE',  ( 1.000000000000000000, 0.0000000000000000000, 0.0000000000000000000 ) ) ;
#100 = ORIENTED_EDGE ( 'NONE', *, *, #12, .F. ) ;
#101 = DIRECTION ( 'NONE',  ( 1.000000000000000000, 0.0000000000000000000, -0.0000000000000000000 ) ) ;
#102 = ORIENTED_EDGE ( 'NONE', *, *, #53, .T. ) ;
#103 = EDGE_LOOP ( 'NONE', ( #138, #161, #385, #190 ) ) ;
#104 = EDGE_CURVE ( 'NONE', #366, #384, #219, .T. ) ;
#105 = DIRECTION ( 'NONE',  ( 0.0000000000000000000, 0.0000000000000000000, 1.000000000000000000 ) ) ;
#106 = ORIENTED_EDGE ( 'NONE', *, *, #112, .T. ) ;
#107 = PERSON_AND_ORGANIZATION ( #331, #6 ) ;
#108 = CARTESIAN_POINT ( 'NONE',  ( -4.320000000000000300, 5.400692384239827800E-016, 0.4500000000000000100 ) ) ;
#109 = EDGE_CURVE ( 'NONE', #393, #366, #402, .T. ) ;
#110 = FACE_OUTER_BOUND ( 'NONE', #103, .T. ) ;
#111 = APPLICATION_CONTEXT ( 'configuration controlled 3d designs of mechanical parts and assemblies' ) ;
#112 = EDGE_CURVE ( 'NONE', #152, #158, #70, .T. ) ;
#113 = PERSON_AND_ORGANIZATION ( #331, #6 ) ;
#114 = DIRECTION ( 'NONE',  ( 1.000000000000000000, 0.0000000000000000000, 0.0000000000000000000 ) ) ;
#115 = TOROIDAL_SURFACE ( 'NONE', #321, 4.320000000000000300, 0.1799999999999999900 ) ;
#116 = ORIENTED_EDGE ( 'NONE', *, *, #298, .F. ) ;
#117 = EDGE_CURVE ( 'NONE', #344, #132, #66, .T. ) ;
#118 = APPROVAL_PERSON_ORGANIZATION ( #303, #185, #309 ) ;
#119 = DIRECTION ( 'NONE',  ( 1.000000000000000000, 0.0000000000000000000, -0.0000000000000000000 ) ) ;
#120 = DIRECTION ( 'NONE',  ( 0.0000000000000000000, 0.0000000000000000000, 1.000000000000000000 ) ) ;
#121 = DIRECTION ( 'NONE',  ( 0.0000000000000000000, 0.0000000000000000000, 1.000000000000000000 ) ) ;
#122 = AXIS2_PLACEMENT_3D ( 'NONE', #130, #42, #188 ) ;
#123 = COORDINATED_UNIVERSAL_TIME_OFFSET ( 6, 0, .BEHIND. ) ;
#124 = FACE_OUTER_BOUND ( 'NONE', #31, .T. ) ;
#125 = CARTESIAN_POINT ( 'NONE',  ( 0.0000000000000000000, 0.0000000000000000000, 0.4500000000000000100 ) ) ;
#126 = CARTESIAN_POINT ( 'NONE',  ( -4.320000000000000300, 5.290474172316566000E-016, 0.2699999999999999600 ) ) ;
#127 = AXIS2_PLACEMENT_3D ( 'NONE', #4, #187, #101 ) ;
#128 = FACE_OUTER_BOUND ( 'NONE', #68, .T. ) ;
#129 = EDGE_CURVE ( 'NONE', #132, #344, #189, .T. ) ;
#130 = CARTESIAN_POINT ( 'NONE',  ( 0.0000000000000000000, 0.0000000000000000000, -0.4500000000000000100 ) ) ;
#131 = FACE_OUTER_BOUND ( 'NONE', #97, .T. ) ;
#132 = VERTEX_POINT ( 'NONE', #36 ) ;
#133 = DIRECTION ( 'NONE',  ( -0.0000000000000000000, -0.0000000000000000000, -1.000000000000000000 ) ) ;
#134 = AXIS2_PLACEMENT_3D ( 'NONE', #155, #90, #147 ) ;
#135 = DIRECTION ( 'NONE',  ( 1.000000000000000000, 0.0000000000000000000, 0.0000000000000000000 ) ) ;
#136 = FACE_OUTER_BOUND ( 'NONE', #338, .T. ) ;
#137 = APPROVAL_STATUS ( 'not_yet_approved' ) ;
#138 = ORIENTED_EDGE ( 'NONE', *, *, #244, .F. ) ;
#139 = CALENDAR_DATE ( 2024, 13, 5 ) ;
#140 = AXIS2_PLACEMENT_3D ( 'NONE', #89, #82, #114 ) ;
#141 = CIRCLE ( 'NONE', #281, 0.09000000000000002400 ) ;
#142 = CARTESIAN_POINT ( 'NONE',  ( -2.239999999999999800, 2.743208830090071000E-016, 0.3599999999999999900 ) ) ;
#143 = APPROVAL_DATE_TIME ( #180, #313 ) ;
#144 = CARTESIAN_POINT ( 'NONE',  ( 0.0000000000000000000, 0.0000000000000000000, 0.4500000000000000100 ) ) ;
#145 = EDGE_LOOP ( 'NONE', ( #399, #308, #197, #40 ) ) ;
#146 = AXIS2_PLACEMENT_3D ( 'NONE', #25, #361, #266 ) ;
#147 = DIRECTION ( 'NONE',  ( 1.000000000000000000, 0.0000000000000000000, 0.0000000000000000000 ) ) ;
#148 = APPROVAL_DATE_TIME ( #35, #185 ) ;
#149 = ADVANCED_FACE ( 'NONE', ( #131 ), #295, .F. ) ;
#150 = FACE_OUTER_BOUND ( 'NONE', #168, .T. ) ;
#151 = ADVANCED_BREP_SHAPE_REPRESENTATION ( '98687A134_General Purpose Steel Washer', ( #67, #347 ), #157 ) ;
#152 = VERTEX_POINT ( 'NONE', #108 ) ;
#153 = AXIS2_PLACEMENT_3D ( 'NONE', #16, #326, #229 ) ;
#154 = CYLINDRICAL_SURFACE ( 'NONE', #296, 4.500000000000000000 ) ;
#155 = CARTESIAN_POINT ( 'NONE',  ( 0.0000000000000000000, 0.0000000000000000000, 0.3599999999999999900 ) ) ;
#156 = VECTOR ( 'NONE', #91, 1000.000000000000000 ) ;
#157 =( GEOMETRIC_REPRESENTATION_CONTEXT ( 3 ) GLOBAL_UNCERTAINTY_ASSIGNED_CONTEXT ( ( #24 ) ) GLOBAL_UNIT_ASSIGNED_CONTEXT ( ( #47, #165, #216 ) ) REPRESENTATION_CONTEXT ( 'NONE', 'WORKASPACE' ) );
#158 = VERTEX_POINT ( 'NONE', #247 ) ;
#159 = ORIENTED_EDGE ( 'NONE', *, *, #117, .T. ) ;
#160 = CARTESIAN_POINT ( 'NONE',  ( 4.320000000000000300, 0.0000000000000000000, -0.4500000000000000100 ) ) ;
#161 = ORIENTED_EDGE ( 'NONE', *, *, #162, .T. ) ;
#162 = EDGE_CURVE ( 'NONE', #85, #177, #214, .T. ) ;
#163 = CARTESIAN_POINT ( 'NONE',  ( 0.0000000000000000000, 0.0000000000000000000, 0.2699999999999999600 ) ) ;
#164 = CIRCLE ( 'NONE', #200, 0.1799999999999999900 ) ;
#165 =( NAMED_UNIT ( * ) PLANE_ANGLE_UNIT ( ) SI_UNIT ( $, .RADIAN. ) );
#166 = CC_DESIGN_DATE_AND_TIME_ASSIGNMENT ( #195, #167, ( #354 ) ) ;
#167 = DATE_TIME_ROLE ( 'classification_date' ) ;
#168 = EDGE_LOOP ( 'NONE', ( #100, #33, #405, #232 ) ) ;
#169 = CARTESIAN_POINT ( 'NONE',  ( 0.0000000000000000000, 0.0000000000000000000, -0.4500000000000000100 ) ) ;
#170 = AXIS2_PLACEMENT_3D ( 'NONE', #263, #327, #119 ) ;
#171 = DIRECTION ( 'NONE',  ( -0.0000000000000000000, -0.0000000000000000000, -1.000000000000000000 ) ) ;
#172 = EDGE_CURVE ( 'NONE', #208, #85, #181, .T. ) ;
#173 = DIRECTION ( 'NONE',  ( -1.000000000000000000, 1.224646799147354700E-016, 0.0000000000000000000 ) ) ;
#174 = CARTESIAN_POINT ( 'NONE',  ( -2.149999999999999900, 2.632990618166809200E-016, 0.3599999999999999900 ) ) ;
#175 = CARTESIAN_POINT ( 'NONE',  ( 4.500000000000000000, 0.0000000000000000000, 0.2699999999999999600 ) ) ;
#176 = EDGE_LOOP ( 'NONE', ( #11, #102 ) ) ;
#177 = VERTEX_POINT ( 'NONE', #37 ) ;
#178 = CARTESIAN_POINT ( 'NONE',  ( 0.0000000000000000000, 0.0000000000000000000, -0.2700000000000000200 ) ) ;
#179 = AXIS2_PLACEMENT_3D ( 'NONE', #294, #121, #356 ) ;
#180 = DATE_AND_TIME ( #227, #29 ) ;
#181 = CIRCLE ( 'NONE', #280, 4.320000000000000300 ) ;
#182 = DIRECTION ( 'NONE',  ( 0.0000000000000000000, 0.0000000000000000000, -1.000000000000000000 ) ) ;
#183 = ORIENTED_EDGE ( 'NONE', *, *, #21, .T. ) ;
#184 = DIRECTION ( 'NONE',  ( 0.0000000000000000000, 0.0000000000000000000, 1.000000000000000000 ) ) ;
#185 = APPROVAL ( #75, 'UNSPECIFIED' ) ;
#186 = DIRECTION ( 'NONE',  ( 1.000000000000000000, 0.0000000000000000000, 0.0000000000000000000 ) ) ;
#187 = DIRECTION ( 'NONE',  ( 0.0000000000000000000, 0.0000000000000000000, 1.000000000000000000 ) ) ;
#188 = DIRECTION ( 'NONE',  ( 1.000000000000000000, 0.0000000000000000000, 0.0000000000000000000 ) ) ;
#189 = CIRCLE ( 'NONE', #349, 2.149999999999999900 ) ;
#190 = ORIENTED_EDGE ( 'NONE', *, *, #92, .F. ) ;
#191 = PERSON_AND_ORGANIZATION_ROLE ( 'creator' ) ;
#192 = CARTESIAN_POINT ( 'NONE',  ( 0.0000000000000000000, 0.0000000000000000000, -0.4500000000000000100 ) ) ;
#193 = DIRECTION ( 'NONE',  ( 1.000000000000000000, 0.0000000000000000000, 0.0000000000000000000 ) ) ;
#194 = DIRECTION ( 'NONE',  ( 0.0000000000000000000, 0.0000000000000000000, 1.000000000000000000 ) ) ;
#195 = DATE_AND_TIME ( #394, #62 ) ;
#196 = APPROVAL_ROLE ( '' ) ;
#197 = ORIENTED_EDGE ( 'NONE', *, *, #325, .T. ) ;
#198 = DIRECTION ( 'NONE',  ( -0.0000000000000000000, -0.0000000000000000000, -1.000000000000000000 ) ) ;
#199 = PERSON_AND_ORGANIZATION ( #331, #6 ) ;
#200 = AXIS2_PLACEMENT_3D ( 'NONE', #52, #212, #377 ) ;
#201 = CYLINDRICAL_SURFACE ( 'NONE', #43, 4.500000000000000000 ) ;
#202 = CC_DESIGN_APPROVAL ( #185, ( #354 ) ) ;
#203 = FACE_BOUND ( 'NONE', #241, .T. ) ;
#204 = DIRECTION ( 'NONE',  ( 1.000000000000000000, 0.0000000000000000000, 0.0000000000000000000 ) ) ;
#205 = CARTESIAN_POINT ( 'NONE',  ( 0.0000000000000000000, 0.0000000000000000000, -0.4500000000000000100 ) ) ;
#206 = ORIENTED_EDGE ( 'NONE', *, *, #316, .F. ) ;
#207 = DIRECTION ( 'NONE',  ( 1.000000000000000000, 0.0000000000000000000, 0.0000000000000000000 ) ) ;
#208 = VERTEX_POINT ( 'NONE', #160 ) ;
#209 = AXIS2_PLACEMENT_3D ( 'NONE', #291, #120, #289 ) ;
#210 = LINE ( 'NONE', #272, #156 ) ;
#211 = ADVANCED_FACE ( 'NONE', ( #50 ), #279, .T. ) ;
#212 = DIRECTION ( 'NONE',  ( 0.0000000000000000000, -1.000000000000000000, 0.0000000000000000000 ) ) ;
#213 = DIRECTION ( 'NONE',  ( 1.000000000000000000, 0.0000000000000000000, 0.0000000000000000000 ) ) ;
#214 = CIRCLE ( 'NONE', #271, 0.1799999999999996000 ) ;
#215 = PRODUCT_DEFINITION_FORMATION_WITH_SPECIFIED_SOURCE ( 'ANY', '', #236, .NOT_KNOWN. ) ;
#216 =( NAMED_UNIT ( * ) SI_UNIT ( $, .STERADIAN. ) SOLID_ANGLE_UNIT ( ) );
#217 = DIRECTION ( 'NONE',  ( 1.000000000000000000, 0.0000000000000000000, 0.0000000000000000000 ) ) ;
#218 = DIRECTION ( 'NONE',  ( 1.000000000000000000, 0.0000000000000000000, 0.0000000000000000000 ) ) ;
#219 = CIRCLE ( 'NONE', #262, 4.500000000000000000 ) ;
#220 = MECHANICAL_CONTEXT ( 'NONE', #111, 'mechanical' ) ;
#221 = CC_DESIGN_SECURITY_CLASSIFICATION ( #354, ( #215 ) ) ;
#222 = SECURITY_CLASSIFICATION_LEVEL ( 'unclassified' ) ;
#223 = EDGE_LOOP ( 'NONE', ( #3, #81 ) ) ;
#224 = CALENDAR_DATE ( 2024, 13, 5 ) ;
#225 = ORIENTED_EDGE ( 'NONE', *, *, #12, .T. ) ;
#226 = ORIENTED_EDGE ( 'NONE', *, *, #129, .F. ) ;
#227 = CALENDAR_DATE ( 2024, 13, 5 ) ;
#228 = AXIS2_PLACEMENT_3D ( 'NONE', #163, #105, #186 ) ;
#229 = DIRECTION ( 'NONE',  ( 1.000000000000000000, 0.0000000000000000000, 0.0000000000000000000 ) ) ;
#230 = VECTOR ( 'NONE', #323, 1000.000000000000000 ) ;
#231 = DIRECTION ( 'NONE',  ( 0.0000000000000000000, -1.000000000000000000, 0.0000000000000000000 ) ) ;
#232 = ORIENTED_EDGE ( 'NONE', *, *, #381, .F. ) ;
#233 = CARTESIAN_POINT ( 'NONE',  ( 0.0000000000000000000, 0.0000000000000000000, 0.2699999999999999600 ) ) ;
#234 = PLANE ( 'NONE',  #170 ) ;
#235 = ORIENTED_EDGE ( 'NONE', *, *, #21, .F. ) ;
#236 = PRODUCT ( '98687A134_General Purpose Steel Washer', '98687A134_General Purpose Steel Washer', '', ( #220 ) ) ;
#237 = DIRECTION ( 'NONE',  ( 0.0000000000000000000, 0.0000000000000000000, 1.000000000000000000 ) ) ;
#238 = CLOSED_SHELL ( 'NONE', ( #211, #26, #395, #370, #270, #28, #93, #149, #360, #300, #267, #292 ) ) ;
#239 = AXIS2_PLACEMENT_3D ( 'NONE', #142, #84, #86 ) ;
#240 = ORIENTED_EDGE ( 'NONE', *, *, #341, .F. ) ;
#241 = EDGE_LOOP ( 'NONE', ( #159, #332 ) ) ;
#242 = CIRCLE ( 'NONE', #140, 4.320000000000000300 ) ;
#243 = CARTESIAN_POINT ( 'NONE',  ( 2.149999999999999900, 0.0000000000000000000, -0.4500000000000000100 ) ) ;
#244 = EDGE_CURVE ( 'NONE', #85, #208, #353, .T. ) ;
#245 = ORIENTED_EDGE ( 'NONE', *, *, #346, .T. ) ;
#246 = PLANE ( 'NONE',  #127 ) ;
#247 = CARTESIAN_POINT ( 'NONE',  ( 4.320000000000000300, 0.0000000000000000000, 0.4500000000000000100 ) ) ;
#248 = CARTESIAN_POINT ( 'NONE',  ( 0.0000000000000000000, 0.0000000000000000000, -0.4500000000000000100 ) ) ;
#249 = CIRCLE ( 'NONE', #374, 4.500000000000000000 ) ;
#250 = CC_DESIGN_PERSON_AND_ORGANIZATION_ASSIGNMENT ( #49, #378, ( #215 ) ) ;
#251 = PERSON_AND_ORGANIZATION_ROLE ( 'design_owner' ) ;
#252 = DATE_TIME_ROLE ( 'creation_date' ) ;
#253 = ORIENTED_EDGE ( 'NONE', *, *, #368, .F. ) ;
#254 = AXIS2_PLACEMENT_3D ( 'NONE', #41, #342, #135 ) ;
#255 = DIRECTION ( 'NONE',  ( 0.0000000000000000000, 0.0000000000000000000, 1.000000000000000000 ) ) ;
#256 = CALENDAR_DATE ( 2024, 13, 5 ) ;
#257 = CARTESIAN_POINT ( 'NONE',  ( -4.500000000000000000, 5.510910596163088600E-016, -0.4500000000000000100 ) ) ;
#258 = CIRCLE ( 'NONE', #209, 4.500000000000000000 ) ;
#259 = EDGE_LOOP ( 'NONE', ( #95, #106 ) ) ;
#260 = CARTESIAN_POINT ( 'NONE',  ( 4.500000000000000000, 0.0000000000000000000, -0.4500000000000000100 ) ) ;
#261 = DIRECTION ( 'NONE',  ( 0.0000000000000000000, 0.0000000000000000000, -1.000000000000000000 ) ) ;
#262 = AXIS2_PLACEMENT_3D ( 'NONE', #77, #198, #351 ) ;
#263 = CARTESIAN_POINT ( 'NONE',  ( 0.0000000000000000000, 0.0000000000000000000, 0.4500000000000000100 ) ) ;
#264 = DIRECTION ( 'NONE',  ( 1.224646799147353200E-016, 1.000000000000000000, -0.0000000000000000000 ) ) ;
#265 = AXIS2_PLACEMENT_3D ( 'NONE', #125, #371, #19 ) ;
#266 = DIRECTION ( 'NONE',  ( 1.000000000000000000, 0.0000000000000000000, 0.0000000000000000000 ) ) ;
#267 = ADVANCED_FACE ( 'NONE', ( #382 ), #287, .T. ) ;
#268 = PERSON_AND_ORGANIZATION ( #331, #6 ) ;
#269 = CIRCLE ( 'NONE', #365, 0.1799999999999996000 ) ;
#270 = ADVANCED_FACE ( 'NONE', ( #128 ), #201, .T. ) ;
#271 = AXIS2_PLACEMENT_3D ( 'NONE', #345, #340, #310 ) ;
#272 = CARTESIAN_POINT ( 'NONE',  ( 2.149999999999999900, 0.0000000000000000000, -0.4500000000000000100 ) ) ;
#273 = PERSON_AND_ORGANIZATION ( #331, #6 ) ;
#274 = ORIENTED_EDGE ( 'NONE', *, *, #162, .F. ) ;
#275 = AXIS2_PLACEMENT_3D ( 'NONE', #307, #380, #218 ) ;
#276 = VECTOR ( 'NONE', #352, 1000.000000000000000 ) ;
#277 = DIRECTION ( 'NONE',  ( 1.000000000000000000, 0.0000000000000000000, 0.0000000000000000000 ) ) ;
#278 = CARTESIAN_POINT ( 'NONE',  ( 0.0000000000000000000, 0.0000000000000000000, -0.4500000000000000100 ) ) ;
#279 = TOROIDAL_SURFACE ( 'NONE', #254, 2.239999999999999800, 0.08999999999999999700 ) ;
#280 = AXIS2_PLACEMENT_3D ( 'NONE', #8, #133, #217 ) ;
#281 = AXIS2_PLACEMENT_3D ( 'NONE', #299, #231, #261 ) ;
#282 = CIRCLE ( 'NONE', #34, 2.149999999999999900 ) ;
#283 = CARTESIAN_POINT ( 'NONE',  ( 2.239999999999999800, 0.0000000000000000000, 0.4500000000000000100 ) ) ;
#284 = AXIS2_PLACEMENT_3D ( 'NONE', #205, #23, #359 ) ;
#285 = LOCAL_TIME ( 9, 14, 36.00000000000000000, #32 ) ;
#286 = DIRECTION ( 'NONE',  ( 0.0000000000000000000, 0.0000000000000000000, 1.000000000000000000 ) ) ;
#287 = TOROIDAL_SURFACE ( 'NONE', #228, 4.320000000000000300, 0.1799999999999999900 ) ;
#288 = DIRECTION ( 'NONE',  ( 0.0000000000000000000, 0.0000000000000000000, 1.000000000000000000 ) ) ;
#289 = DIRECTION ( 'NONE',  ( 1.000000000000000000, 0.0000000000000000000, 0.0000000000000000000 ) ) ;
#290 = ORIENTED_EDGE ( 'NONE', *, *, #346, .F. ) ;
#291 = CARTESIAN_POINT ( 'NONE',  ( 0.0000000000000000000, 0.0000000000000000000, -0.2700000000000000200 ) ) ;
#292 = ADVANCED_FACE ( 'NONE', ( #150 ), #1, .T. ) ;
#293 = ORIENTED_EDGE ( 'NONE', *, *, #381, .T. ) ;
#294 = CARTESIAN_POINT ( 'NONE',  ( 0.0000000000000000000, 0.0000000000000000000, -0.2700000000000000200 ) ) ;
#295 = CYLINDRICAL_SURFACE ( 'NONE', #18, 2.149999999999999900 ) ;
#296 = AXIS2_PLACEMENT_3D ( 'NONE', #169, #286, #54 ) ;
#297 = APPROVAL_PERSON_ORGANIZATION ( #113, #59, #196 ) ;
#298 = EDGE_CURVE ( 'NONE', #384, #366, #386, .T. ) ;
#299 = CARTESIAN_POINT ( 'NONE',  ( 2.239999999999999800, 0.0000000000000000000, 0.3599999999999999900 ) ) ;
#300 = ADVANCED_FACE ( 'NONE', ( #136 ), #115, .T. ) ;
#301 = FACE_OUTER_BOUND ( 'NONE', #223, .T. ) ;
#302 = EDGE_CURVE ( 'NONE', #384, #152, #269, .T. ) ;
#303 = PERSON_AND_ORGANIZATION ( #331, #6 ) ;
#304 = PRODUCT_DEFINITION ( 'UNKNOWN', '', #215, #403 ) ;
#305 = TOROIDAL_SURFACE ( 'NONE', #153, 4.320000000000000300, 0.1799999999999999900 ) ;
#306 = VERTEX_POINT ( 'NONE', #22 ) ;
#307 = CARTESIAN_POINT ( 'NONE',  ( 0.0000000000000000000, 0.0000000000000000000, -0.4500000000000000100 ) ) ;
#308 = ORIENTED_EDGE ( 'NONE', *, *, #104, .F. ) ;
#309 = APPROVAL_ROLE ( '' ) ;
#310 = DIRECTION ( 'NONE',  ( -1.000000000000000000, 1.224646799147354700E-016, 0.0000000000000000000 ) ) ;
#311 = DATE_AND_TIME ( #256, #375 ) ;
#312 = VERTEX_POINT ( 'NONE', #63 ) ;
#313 = APPROVAL ( #137, 'UNSPECIFIED' ) ;
#314 = APPROVAL_ROLE ( '' ) ;
#315 = APPLICATION_CONTEXT ( 'configuration controlled 3d designs of mechanical parts and assemblies' ) ;
#316 = EDGE_CURVE ( 'NONE', #312, #336, #9, .T. ) ;
#317 = APPLICATION_PROTOCOL_DEFINITION ( 'international standard', 'config_control_design', 1994, #315 ) ;
#318 = ORIENTED_EDGE ( 'NONE', *, *, #109, .F. ) ;
#319 = PRODUCT_RELATED_PRODUCT_CATEGORY ( 'detail', '', ( #236 ) ) ;
#320 = ORIENTED_EDGE ( 'NONE', *, *, #109, .T. ) ;
#321 = AXIS2_PLACEMENT_3D ( 'NONE', #369, #288, #99 ) ;
#322 = CARTESIAN_POINT ( 'NONE',  ( -4.320000000000000300, 5.400692384239827800E-016, -0.4500000000000000100 ) ) ;
#323 = DIRECTION ( 'NONE',  ( 0.0000000000000000000, 0.0000000000000000000, 1.000000000000000000 ) ) ;
#324 = ORIENTED_EDGE ( 'NONE', *, *, #368, .T. ) ;
#325 = EDGE_CURVE ( 'NONE', #366, #158, #343, .T. ) ;
#326 = DIRECTION ( 'NONE',  ( 0.0000000000000000000, 0.0000000000000000000, 1.000000000000000000 ) ) ;
#327 = DIRECTION ( 'NONE',  ( 0.0000000000000000000, 0.0000000000000000000, 1.000000000000000000 ) ) ;
#328 = CC_DESIGN_APPROVAL ( #59, ( #304 ) ) ;
#329 = DIRECTION ( 'NONE',  ( 0.0000000000000000000, 0.0000000000000000000, 1.000000000000000000 ) ) ;
#330 = ORIENTED_EDGE ( 'NONE', *, *, #302, .T. ) ;
#331 = PERSON ( 'UNSPECIFIED', 'UNSPECIFIED', 'UNSPECIFIED', ('UNSPECIFIED'), ('UNSPECIFIED'), ('UNSPECIFIED') ) ;
#332 = ORIENTED_EDGE ( 'NONE', *, *, #129, .T. ) ;
#333 = CIRCLE ( 'NONE', #146, 2.239999999999999800 ) ;
#334 = CC_DESIGN_APPROVAL ( #313, ( #215 ) ) ;
#335 = CARTESIAN_POINT ( 'NONE',  ( 0.0000000000000000000, 0.0000000000000000000, 0.3599999999999999900 ) ) ;
#336 = VERTEX_POINT ( 'NONE', #174 ) ;
#337 = ORIENTED_EDGE ( 'NONE', *, *, #104, .T. ) ;
#338 = EDGE_LOOP ( 'NONE', ( #274, #14, #364, #98 ) ) ;
#339 = LOCAL_TIME ( 9, 14, 36.00000000000000000, #123 ) ;
#340 = DIRECTION ( 'NONE',  ( 1.224646799147353200E-016, 1.000000000000000000, -0.0000000000000000000 ) ) ;
#341 = EDGE_CURVE ( 'NONE', #27, #312, #141, .T. ) ;
#342 = DIRECTION ( 'NONE',  ( 0.0000000000000000000, 0.0000000000000000000, 1.000000000000000000 ) ) ;
#343 = CIRCLE ( 'NONE', #5, 0.1799999999999999900 ) ;
#344 = VERTEX_POINT ( 'NONE', #243 ) ;
#345 = CARTESIAN_POINT ( 'NONE',  ( -4.320000000000000300, 5.290474172316566000E-016, -0.2700000000000000200 ) ) ;
#346 = EDGE_CURVE ( 'NONE', #344, #312, #210, .T. ) ;
#347 = AXIS2_PLACEMENT_3D ( 'NONE', #76, #10, #193 ) ;
#348 = ORIENTED_EDGE ( 'NONE', *, *, #53, .F. ) ;
#349 = AXIS2_PLACEMENT_3D ( 'NONE', #248, #71, #277 ) ;
#350 = ORIENTED_EDGE ( 'NONE', *, *, #325, .F. ) ;
#351 = DIRECTION ( 'NONE',  ( 1.000000000000000000, 0.0000000000000000000, 0.0000000000000000000 ) ) ;
#352 = DIRECTION ( 'NONE',  ( 0.0000000000000000000, 0.0000000000000000000, 1.000000000000000000 ) ) ;
#353 = CIRCLE ( 'NONE', #275, 4.320000000000000300 ) ;
#354 = SECURITY_CLASSIFICATION ( '', '', #222 ) ;
#355 = APPROVAL_DATE_TIME ( #44, #59 ) ;
#356 = DIRECTION ( 'NONE',  ( 1.000000000000000000, 0.0000000000000000000, 0.0000000000000000000 ) ) ;
#357 = EDGE_CURVE ( 'NONE', #393, #177, #258, .T. ) ;
#358 = PRODUCT_DEFINITION_SHAPE ( 'NONE', 'NONE',  #304 ) ;
#359 = DIRECTION ( 'NONE',  ( 1.000000000000000000, 0.0000000000000000000, 0.0000000000000000000 ) ) ;
#360 = ADVANCED_FACE ( 'NONE', ( #46, #61 ), #234, .T. ) ;
#361 = DIRECTION ( 'NONE',  ( -0.0000000000000000000, -0.0000000000000000000, -1.000000000000000000 ) ) ;
#362 = EDGE_LOOP ( 'NONE', ( #235, #13, #320, #337 ) ) ;
#363 = CARTESIAN_POINT ( 'NONE',  ( -4.500000000000000000, 5.510910596163088600E-016, 0.2699999999999999600 ) ) ;
#364 = ORIENTED_EDGE ( 'NONE', *, *, #92, .T. ) ;
#365 = AXIS2_PLACEMENT_3D ( 'NONE', #126, #264, #173 ) ;
#366 = VERTEX_POINT ( 'NONE', #175 ) ;
#367 = CARTESIAN_POINT ( 'NONE',  ( 4.320000000000000300, 0.0000000000000000000, 0.2699999999999999600 ) ) ;
#368 = EDGE_CURVE ( 'NONE', #132, #336, #376, .T. ) ;
#369 = CARTESIAN_POINT ( 'NONE',  ( 0.0000000000000000000, 0.0000000000000000000, -0.2700000000000000200 ) ) ;
#370 = ADVANCED_FACE ( 'NONE', ( #124 ), #78, .F. ) ;
#371 = DIRECTION ( 'NONE',  ( 0.0000000000000000000, 0.0000000000000000000, 1.000000000000000000 ) ) ;
#372 = FACE_OUTER_BOUND ( 'NONE', #64, .T. ) ;
#373 = DIRECTION ( 'NONE',  ( 1.000000000000000000, 0.0000000000000000000, 0.0000000000000000000 ) ) ;
#374 = AXIS2_PLACEMENT_3D ( 'NONE', #178, #398, #207 ) ;
#375 = LOCAL_TIME ( 9, 14, 36.00000000000000000, #400 ) ;
#376 = LINE ( 'NONE', #392, #17 ) ;
#377 = DIRECTION ( 'NONE',  ( 0.0000000000000000000, 0.0000000000000000000, -1.000000000000000000 ) ) ;
#378 = PERSON_AND_ORGANIZATION_ROLE ( 'creator' ) ;
#379 = APPROVAL_PERSON_ORGANIZATION ( #268, #313, #314 ) ;
#380 = DIRECTION ( 'NONE',  ( -0.0000000000000000000, -0.0000000000000000000, -1.000000000000000000 ) ) ;
#381 = EDGE_CURVE ( 'NONE', #336, #312, #282, .T. ) ;
#382 = FACE_OUTER_BOUND ( 'NONE', #145, .T. ) ;
#383 = APPLICATION_PROTOCOL_DEFINITION ( 'international standard', 'config_control_design', 1994, #111 ) ;
#384 = VERTEX_POINT ( 'NONE', #363 ) ;
#385 = ORIENTED_EDGE ( 'NONE', *, *, #357, .F. ) ;
#386 = CIRCLE ( 'NONE', #404, 4.500000000000000000 ) ;
#387 = EDGE_CURVE ( 'NONE', #27, #306, #333, .T. ) ;
#388 = EDGE_CURVE ( 'NONE', #177, #393, #249, .T. ) ;
#389 = DIRECTION ( 'NONE',  ( 1.000000000000000000, 0.0000000000000000000, 0.0000000000000000000 ) ) ;
#390 = ORIENTED_EDGE ( 'NONE', *, *, #316, .T. ) ;
#391 = DIRECTION ( 'NONE',  ( 1.000000000000000000, 0.0000000000000000000, 0.0000000000000000000 ) ) ;
#392 = CARTESIAN_POINT ( 'NONE',  ( -2.149999999999999900, 2.632990618166809200E-016, -0.4500000000000000100 ) ) ;
#393 = VERTEX_POINT ( 'NONE', #58 ) ;
#394 = CALENDAR_DATE ( 2024, 13, 5 ) ;
#395 = ADVANCED_FACE ( 'NONE', ( #110 ), #87, .T. ) ;
#396 = CC_DESIGN_PERSON_AND_ORGANIZATION_ASSIGNMENT ( #273, #191, ( #304 ) ) ;
#397 = FACE_OUTER_BOUND ( 'NONE', #362, .T. ) ;
#398 = DIRECTION ( 'NONE',  ( 0.0000000000000000000, 0.0000000000000000000, 1.000000000000000000 ) ) ;
#399 = ORIENTED_EDGE ( 'NONE', *, *, #302, .F. ) ;
#400 = COORDINATED_UNIVERSAL_TIME_OFFSET ( 6, 0, .BEHIND. ) ;
#401 = DIRECTION ( 'NONE',  ( -0.0000000000000000000, -0.0000000000000000000, -1.000000000000000000 ) ) ;
#402 = LINE ( 'NONE', #260, #276 ) ;
#403 = DESIGN_CONTEXT ( 'detailed design', #315, 'design' ) ;
#404 = AXIS2_PLACEMENT_3D ( 'NONE', #233, #401, #391 ) ;
#405 = ORIENTED_EDGE ( 'NONE', *, *, #341, .T. ) ;
ENDSEC;
END-ISO-10303-21;
